<svg width="372" height="30" viewBox="0 0 372 30" fill="none" xmlns="http://www.w3.org/2000/svg">
<path d="M18.98 11.432C18.404 10.376 17.612 9.572 16.604 9.02C15.596 8.468 14.42 8.192 13.076 8.192C11.588 8.192 10.268 8.528 9.116 9.2C7.964 9.872 7.064 10.832 6.416 12.08C5.768 13.328 5.444 14.768 5.444 16.4C5.444 18.08 5.768 19.544 6.416 20.792C7.088 22.04 8.012 23 9.188 23.672C10.364 24.344 11.732 24.68 13.292 24.68C15.212 24.68 16.784 24.176 18.008 23.168C19.232 22.136 20.036 20.708 20.42 18.884H11.78V15.032H25.388V19.424C25.052 21.176 24.332 22.796 23.228 24.284C22.124 25.772 20.696 26.972 18.944 27.884C17.216 28.772 15.272 29.216 13.112 29.216C10.688 29.216 8.492 28.676 6.524 27.596C4.58 26.492 3.044 24.968 1.916 23.024C0.812 21.08 0.26 18.872 0.26 16.4C0.26 13.928 0.812 11.72 1.916 9.776C3.044 7.808 4.58 6.284 6.524 5.204C8.492 4.1 10.676 3.548 13.076 3.548C15.908 3.548 18.368 4.244 20.456 5.636C22.544 7.004 23.984 8.936 24.776 11.432H18.98ZM47.6568 18.596C47.6568 19.316 47.6088 19.964 47.5128 20.54H32.9328C33.0528 21.98 33.5568 23.108 34.4448 23.924C35.3328 24.74 36.4248 25.148 37.7208 25.148C39.5928 25.148 40.9248 24.344 41.7168 22.736H47.1528C46.5768 24.656 45.4728 26.24 43.8408 27.488C42.2088 28.712 40.2048 29.324 37.8288 29.324C35.9088 29.324 34.1808 28.904 32.6448 28.064C31.1328 27.2 29.9448 25.988 29.0808 24.428C28.2408 22.868 27.8208 21.068 27.8208 19.028C27.8208 16.964 28.2408 15.152 29.0808 13.592C29.9208 12.032 31.0968 10.832 32.6088 9.992C34.1208 9.152 35.8608 8.732 37.8288 8.732C39.7248 8.732 41.4168 9.14 42.9048 9.956C44.4168 10.772 45.5808 11.936 46.3968 13.448C47.2368 14.936 47.6568 16.652 47.6568 18.596ZM42.4368 17.156C42.4128 15.86 41.9448 14.828 41.0328 14.06C40.1208 13.268 39.0048 12.872 37.6848 12.872C36.4368 12.872 35.3808 13.256 34.5168 14.024C33.6768 14.768 33.1608 15.812 32.9688 17.156H42.4368ZM57.2036 13.196V22.844C57.2036 23.516 57.3596 24.008 57.6716 24.32C58.0076 24.608 58.5596 24.752 59.3276 24.752H61.6676V29H58.4996C54.2516 29 52.1276 26.936 52.1276 22.808V13.196H49.7516V9.056H52.1276V4.124H57.2036V9.056H61.6676V13.196H57.2036ZM78.9107 3.872V29H73.8707V3.872H78.9107ZM94.9423 8.768C97.3183 8.768 99.2383 9.524 100.702 11.036C102.166 12.524 102.898 14.612 102.898 17.3V29H97.8583V17.984C97.8583 16.4 97.4623 15.188 96.6703 14.348C95.8783 13.484 94.7983 13.052 93.4303 13.052C92.0383 13.052 90.9343 13.484 90.1183 14.348C89.3263 15.188 88.9303 16.4 88.9303 17.984V29H83.8903V9.056H88.9303V11.54C89.6023 10.676 90.4543 10.004 91.4863 9.524C92.5423 9.02 93.6943 8.768 94.9423 8.768ZM133.369 3.872V7.94H126.673V29H121.633V7.94H114.937V3.872H133.369ZM145.903 29.324C143.983 29.324 142.255 28.904 140.719 28.064C139.183 27.2 137.971 25.988 137.083 24.428C136.219 22.868 135.787 21.068 135.787 19.028C135.787 16.988 136.231 15.188 137.119 13.628C138.031 12.068 139.267 10.868 140.827 10.028C142.387 9.164 144.127 8.732 146.047 8.732C147.967 8.732 149.707 9.164 151.267 10.028C152.827 10.868 154.051 12.068 154.939 13.628C155.851 15.188 156.307 16.988 156.307 19.028C156.307 21.068 155.839 22.868 154.902 24.428C153.991 25.988 152.743 27.2 151.159 28.064C149.599 28.904 147.847 29.324 145.903 29.324ZM145.903 24.932C146.815 24.932 147.667 24.716 148.459 24.284C149.275 23.828 149.923 23.156 150.403 22.268C150.883 21.38 151.123 20.3 151.123 19.028C151.123 17.132 150.619 15.68 149.611 14.672C148.627 13.64 147.415 13.124 145.975 13.124C144.535 13.124 143.323 13.64 142.339 14.672C141.379 15.68 140.899 17.132 140.899 19.028C140.899 20.924 141.367 22.388 142.303 23.42C143.263 24.428 144.463 24.932 145.903 24.932ZM178.832 9.056V29H173.756V26.48C173.108 27.344 172.256 28.028 171.2 28.532C170.168 29.012 169.04 29.252 167.816 29.252C166.256 29.252 164.876 28.928 163.676 28.28C162.476 27.608 161.528 26.636 160.832 25.364C160.16 24.068 159.824 22.532 159.824 20.756V9.056H164.864V20.036C164.864 21.62 165.26 22.844 166.052 23.708C166.844 24.548 167.924 24.968 169.292 24.968C170.684 24.968 171.776 24.548 172.568 23.708C173.36 22.844 173.756 21.62 173.756 20.036V9.056H178.832ZM182.508 19.028C182.508 16.964 182.928 15.164 183.768 13.628C184.608 12.068 185.772 10.868 187.26 10.028C188.748 9.164 190.452 8.732 192.372 8.732C194.844 8.732 196.884 9.356 198.492 10.604C200.124 11.828 201.216 13.556 201.768 15.788H196.332C196.044 14.924 195.552 14.252 194.856 13.772C194.184 13.268 193.344 13.016 192.336 13.016C190.896 13.016 189.756 13.544 188.916 14.6C188.076 15.632 187.656 17.108 187.656 19.028C187.656 20.924 188.076 22.4 188.916 23.456C189.756 24.488 190.896 25.004 192.336 25.004C194.376 25.004 195.708 24.092 196.332 22.268H201.768C201.216 24.428 200.124 26.144 198.492 27.416C196.86 28.688 194.82 29.324 192.372 29.324C190.452 29.324 188.748 28.904 187.26 28.064C185.772 27.2 184.608 26 183.768 24.464C182.928 22.904 182.508 21.092 182.508 19.028ZM216.693 8.768C218.205 8.768 219.549 9.104 220.725 9.776C221.901 10.424 222.813 11.396 223.461 12.692C224.133 13.964 224.469 15.5 224.469 17.3V29H219.429V17.984C219.429 16.4 219.033 15.188 218.241 14.348C217.449 13.484 216.369 13.052 215.001 13.052C213.609 13.052 212.505 13.484 211.689 14.348C210.897 15.188 210.501 16.4 210.501 17.984V29H205.461V2.36H210.501V11.54C211.149 10.676 212.013 10.004 213.093 9.524C214.173 9.02 215.373 8.768 216.693 8.768ZM271.427 3.872L264.407 29H258.467L253.751 11.108L248.819 29L242.915 29.036L236.147 3.872H241.547L245.975 23.384L251.087 3.872H256.703L261.527 23.276L265.991 3.872H271.427ZM277.274 6.68C276.386 6.68 275.642 6.404 275.042 5.852C274.466 5.276 274.178 4.568 274.178 3.728C274.178 2.888 274.466 2.192 275.042 1.64C275.642 1.064 276.386 0.775999 277.274 0.775999C278.162 0.775999 278.894 1.064 279.47 1.64C280.07 2.192 280.37 2.888 280.37 3.728C280.37 4.568 280.07 5.276 279.47 5.852C278.894 6.404 278.162 6.68 277.274 6.68ZM279.758 9.056V29H274.718V9.056H279.758ZM290.606 13.196V22.844C290.606 23.516 290.762 24.008 291.074 24.32C291.41 24.608 291.962 24.752 292.73 24.752H295.07V29H291.902C287.654 29 285.53 26.936 285.53 22.808V13.196H283.154V9.056H285.53V4.124H290.606V9.056H295.07V13.196H290.606ZM309.927 8.768C311.439 8.768 312.783 9.104 313.959 9.776C315.135 10.424 316.047 11.396 316.695 12.692C317.367 13.964 317.703 15.5 317.703 17.3V29H312.663V17.984C312.663 16.4 312.267 15.188 311.475 14.348C310.683 13.484 309.603 13.052 308.235 13.052C306.843 13.052 305.739 13.484 304.923 14.348C304.131 15.188 303.735 16.4 303.735 17.984V29H298.695V2.36H303.735V11.54C304.383 10.676 305.247 10.004 306.327 9.524C307.407 9.02 308.607 8.768 309.927 8.768ZM336.042 3.872V19.424C336.042 21.128 336.486 22.436 337.374 23.348C338.262 24.236 339.51 24.68 341.118 24.68C342.75 24.68 344.01 24.236 344.898 23.348C345.786 22.436 346.23 21.128 346.23 19.424V3.872H351.306V19.388C351.306 21.524 350.838 23.336 349.902 24.824C348.99 26.288 347.754 27.392 346.194 28.136C344.658 28.88 342.942 29.252 341.046 29.252C339.174 29.252 337.47 28.88 335.934 28.136C334.422 27.392 333.222 26.288 332.334 24.824C331.446 23.336 331.002 21.524 331.002 19.388V3.872H336.042ZM363.807 29.324C362.175 29.324 360.711 29.036 359.415 28.46C358.119 27.86 357.087 27.056 356.319 26.048C355.575 25.04 355.167 23.924 355.095 22.7H360.171C360.267 23.468 360.639 24.104 361.287 24.608C361.959 25.112 362.787 25.364 363.771 25.364C364.731 25.364 365.475 25.172 366.003 24.788C366.555 24.404 366.831 23.912 366.831 23.312C366.831 22.664 366.495 22.184 365.823 21.872C365.175 21.536 364.131 21.176 362.691 20.792C361.203 20.432 359.979 20.06 359.019 19.676C358.083 19.292 357.267 18.704 356.571 17.912C355.899 17.12 355.563 16.052 355.563 14.708C355.563 13.604 355.875 12.596 356.499 11.684C357.147 10.772 358.059 10.052 359.235 9.524C360.435 8.996 361.839 8.732 363.447 8.732C365.823 8.732 367.719 9.332 369.135 10.532C370.551 11.708 371.331 13.304 371.475 15.32H366.651C366.579 14.528 366.243 13.904 365.643 13.448C365.067 12.968 364.287 12.728 363.303 12.728C362.391 12.728 361.683 12.896 361.179 13.232C360.699 13.568 360.459 14.036 360.459 14.636C360.459 15.308 360.795 15.824 361.467 16.184C362.139 16.52 363.183 16.868 364.599 17.228C366.039 17.588 367.227 17.96 368.163 18.344C369.099 18.728 369.903 19.328 370.575 20.144C371.271 20.936 371.631 21.992 371.655 23.312C371.655 24.464 371.331 25.496 370.683 26.408C370.059 27.32 369.147 28.04 367.947 28.568C366.771 29.072 365.391 29.324 363.807 29.324Z" fill="black"/>
</svg>
